<?xml version="1.0" encoding="utf-8"?>
<!-- Generator: Adobe Illustrator 19.0.0, SVG Export Plug-In . SVG Version: 6.00 Build 0)  -->
<svg version="1.1" id="Layer_1" xmlns="http://www.w3.org/2000/svg" xmlns:xlink="http://www.w3.org/1999/xlink" x="0px" y="0px"
	 viewBox="0 0 995 1061.3" style="enable-background:new 0 0 995 1061.3;" xml:space="preserve">
<style type="text/css">
	.st0{fill:none;}
	.st1{fill:#004E98;}
	.st2{fill:#E6E6E6;}
</style>
<g id="XMLID_178_">
	<g id="XMLID_53_">
		<rect id="XMLID_54_" x="198.5" y="199.3" class="st0" width="199" height="199"/>
		<polygon id="XMLID_61_" class="st1" points="198.5,199.3 397.5,199.3 397.5,0.3 199,0.3 0,0.3 -0.5,0 -0.5,199 -0.5,199 -0.5,398 
			-0.5,398 -0.5,597 -0.5,597 -0.5,1061.3 198.5,1061.3 198.5,597.3 397.5,597.3 397.5,398.3 198.5,398.3 		"/>
		<polygon id="XMLID_62_" class="st2" points="796,0.3 596.5,0.3 596.5,199.3 795.5,199.3 795.5,1061.3 994.5,1061.3 994.5,199 
			994.5,0.3 		"/>
		<rect id="XMLID_63_" x="397.5" y="199.3" class="st1" width="199" height="199"/>
	</g>
</g>
</svg>
