<?xml version="1.0" encoding="utf-8"?>
<!-- Generator: Adobe Illustrator 19.0.0, SVG Export Plug-In . SVG Version: 6.00 Build 0)  -->
<svg version="1.1" id="Layer_1" xmlns="http://www.w3.org/2000/svg" xmlns:xlink="http://www.w3.org/1999/xlink" x="0px" y="0px"
	 viewBox="0 0 1016 819" style="enable-background:new 0 0 1016 819;" xml:space="preserve">
<style type="text/css">
	.st0{fill:#004E98;}
</style>
<g id="XMLID_1081_">
	<g id="XMLID_1082_">
		<line id="XMLID_9_" class="st0" x1="32.1" y1="29.4" x2="62.9" y2="29.4"/>
		<line id="XMLID_6_" class="st0" x1="62.9" y1="193.7" x2="32.1" y2="193.7"/>
		<line id="XMLID_4_" x1="155.3" y1="29.4" x2="186.1" y2="29.4"/>
		<line id="XMLID_3_" x1="186.1" y1="193.7" x2="155.3" y2="193.7"/>
		<line id="XMLID_2_" x1="155.3" y1="29.4" x2="124.5" y2="29.4"/>
		<line id="XMLID_1_" class="st0" x1="93.7" y1="29.4" x2="62.9" y2="29.4"/>
	</g>
</g>
<path id="XMLID_8_" d="M801.6,13.8L519.2,202c-6.8,4.5-15.6,4.5-22.4,0L214.4,13.8c-4.2-2.8-9.1-4.3-14.1-4.3H33.4
	C19.4,9.5,8,20.9,8,34.9v749.1c0,14.1,11.4,25.4,25.4,25.4h149.1c14.1,0,25.4-11.4,25.4-25.4V620.3c0-6.8,3.4-13.1,9-16.8l291-194
	l150-100l110.4-73.6c16.9-11.3,39.6,0.8,39.6,21.2v527c0,14.1,11.4,25.4,25.4,25.4h149.1c14.1,0,25.4-11.4,25.4-25.4V34.9
	c0-14.1-11.4-25.4-25.4-25.4H815.7C810.7,9.5,805.8,11,801.6,13.8z M208,371.7V247.3c0-16.1,18-25.8,31.4-16.8l93.4,62.2
	c12,8,12,25.6,0,33.6l-93.4,62.2C226,397.5,208,387.9,208,371.7z"/>
</svg>
